<svg width="50" height="31" viewBox="0 0 50 31" fill="none" xmlns="http://www.w3.org/2000/svg">
<g clip-path="url(#clip0_1054_491)">
<path fill-rule="evenodd" clip-rule="evenodd" d="M18.0527 27.4404H31.4349V3.28461H18.0527V27.4404Z" fill="#FF5F00"/>
<path fill-rule="evenodd" clip-rule="evenodd" d="M18.9028 15.3624C18.9028 10.4618 21.1871 6.09719 24.7442 3.28458C22.1425 1.22729 18.8603 0 15.2926 0C6.84655 0 0 6.87811 0 15.3624C0 23.8468 6.84655 30.7249 15.2926 30.7249C18.8603 30.7249 22.1425 29.4976 24.7442 27.4403C21.1871 24.6273 18.9028 20.2631 18.9028 15.3624Z" fill="#EB001B"/>
<path fill-rule="evenodd" clip-rule="evenodd" d="M49.0108 24.8819V24.2858H48.8558L48.6778 24.6959L48.4993 24.2858H48.3443V24.8819H48.4535V24.4321L48.6208 24.82H48.7343L48.9017 24.4313V24.8819H49.0108ZM48.0291 24.8819V24.3873H48.2279V24.2866H47.7223V24.3873H47.9207V24.8819H48.0291ZM49.4883 15.3623C49.4883 23.8467 42.6414 30.7248 34.1958 30.7248C30.628 30.7248 27.3454 29.4975 24.7441 27.4402C28.3012 24.6276 30.5855 20.2629 30.5855 15.3623C30.5855 10.4621 28.3012 6.09749 24.7441 3.28445C27.3454 1.22717 30.628 -0.00012207 34.1958 -0.00012207C42.6414 -0.00012207 49.4883 6.87799 49.4883 15.3623Z" fill="#F79E1B"/>
</g>
<defs>
<clipPath id="clip0_1054_491">
<rect width="50" height="30.7692" fill="white"/>
</clipPath>
</defs>
</svg>
