<svg width="89" height="22" viewBox="0 0 89 22" fill="none" xmlns="http://www.w3.org/2000/svg">
<g clip-path="url(#clip0_1054_510)">
<path fill-rule="evenodd" clip-rule="evenodd" d="M7.76537 5.07538H13.847C17.1123 5.07538 18.3415 6.72844 18.1516 9.15701C17.8376 13.1664 15.4137 15.3846 12.1986 15.3846H10.5754C10.1343 15.3846 9.83758 15.6766 9.71827 16.4678L9.0291 21.0675C8.98358 21.3658 8.82659 21.5385 8.59111 21.562H4.77008C4.41058 21.562 4.28342 21.2873 4.37761 20.6923L6.70728 5.94665C6.79834 5.35639 7.12173 5.07538 7.76537 5.07538Z" fill="#009EE3"/>
<path fill-rule="evenodd" clip-rule="evenodd" d="M34.1701 4.80219C36.2219 4.80219 38.1152 5.91522 37.8561 8.68916C37.5422 11.9859 35.7761 13.81 32.9896 13.8179H30.5547C30.2046 13.8179 30.0351 14.1036 29.944 14.6892L29.4731 17.6829C29.4024 18.135 29.1701 18.3579 28.8279 18.3579H26.5626C26.2015 18.3579 26.0759 18.1271 26.156 17.6107L28.0257 5.61223C28.1183 5.02197 28.3396 4.80219 28.7431 4.80219H34.1654H34.1701ZM30.4809 11.226H32.3255C33.4794 11.1821 34.2455 10.383 34.3224 8.9419C34.3695 8.05179 33.7682 7.41443 32.8122 7.41914L31.0759 7.42699L30.4809 11.226ZM44.0147 17.4395C44.2219 17.2512 44.4323 17.1538 44.4024 17.3862L44.3287 17.9419C44.291 18.2323 44.4056 18.3862 44.6756 18.3862H46.6882C47.0273 18.3862 47.1921 18.2496 47.2753 17.7253L48.5155 9.9419C48.5783 9.55101 48.4825 9.35948 48.1858 9.35948H45.9723C45.7729 9.35948 45.6756 9.47094 45.6238 9.7755L45.5422 10.2543C45.4998 10.5039 45.3852 10.5479 45.2784 10.2967C44.9032 9.40815 43.9456 9.00941 42.6097 9.0408C39.5061 9.10517 37.4134 11.4615 37.1889 14.4819C37.0163 16.8179 38.6897 18.653 40.897 18.653C42.4982 18.653 43.2141 18.1821 44.021 17.4443L44.0147 17.4395ZM42.3287 16.2417C40.9927 16.2417 40.0618 15.1758 40.2549 13.8697C40.448 12.5636 41.6976 11.4976 43.0335 11.4976C44.3695 11.4976 45.3004 12.5636 45.1073 13.8697C44.9142 15.1758 43.6662 16.2417 42.3287 16.2417ZM52.4543 9.33437H50.4134C49.9927 9.33437 49.8216 9.64834 49.955 10.0345L52.4888 17.4537L50.0037 20.9843C49.7949 21.2794 49.9566 21.5479 50.2502 21.5479H52.5437C52.6774 21.5633 52.8127 21.54 52.9335 21.4807C53.0543 21.4214 53.1555 21.3287 53.2251 21.2135L61.0178 10.0361C61.258 9.69229 61.145 9.33123 60.751 9.33123H58.5798C58.2078 9.33123 58.0587 9.4788 57.8452 9.78806L54.5955 14.4976L53.1434 9.77707C53.0587 9.49135 52.8467 9.33437 52.4558 9.33437H52.4543Z" fill="#113984"/>
<path fill-rule="evenodd" clip-rule="evenodd" d="M69.1236 4.80215C71.1754 4.80215 73.0687 5.91519 72.8096 8.68913C72.4957 11.9858 70.7296 13.81 67.9431 13.8179H65.5098C65.1597 13.8179 64.9902 14.1036 64.8991 14.6891L64.4282 17.6828C64.3575 18.135 64.1252 18.3579 63.783 18.3579H61.5176C61.1566 18.3579 61.031 18.1271 61.1111 17.6106L62.9839 5.60906C63.0765 5.01879 63.2979 4.79901 63.7013 4.79901H69.1236V4.80215ZM65.4344 11.226H67.279C68.4329 11.1821 69.199 10.383 69.2759 8.94187C69.323 8.05176 68.7217 7.4144 67.7657 7.41911L66.0294 7.42696L65.4344 11.226ZM78.9682 17.4395C79.1754 17.2511 79.3858 17.1538 79.3559 17.3861L79.2822 17.9419C79.2445 18.2323 79.3591 18.3861 79.6291 18.3861H81.6417C81.9807 18.3861 82.1456 18.2496 82.2288 17.7252L83.469 9.94187C83.5318 9.55098 83.436 9.35945 83.1393 9.35945H80.9289C80.7296 9.35945 80.6322 9.47091 80.5804 9.77547L80.4988 10.2543C80.4564 10.5039 80.3418 10.5478 80.2351 10.2967C79.8599 9.40812 78.9023 9.00938 77.5663 9.04077C74.4627 9.10514 72.3701 11.4615 72.1456 14.4819C71.9729 16.8179 73.6464 18.653 75.8536 18.653C77.4548 18.653 78.1707 18.1821 78.9776 17.4442L78.9682 17.4395ZM77.2837 16.2417C75.9478 16.2417 75.0169 15.1758 75.21 13.8697C75.403 12.5635 76.6527 11.4976 77.9886 11.4976C79.3246 11.4976 80.2555 12.5635 80.0624 13.8697C79.8693 15.1758 78.6197 16.2417 77.2837 16.2417ZM86.5663 18.3987H84.2429C84.2025 18.4005 84.1622 18.3934 84.1249 18.3778C84.0875 18.3622 84.0541 18.3386 84.0269 18.3086C83.9998 18.2786 83.9796 18.243 83.9678 18.2043C83.956 18.1656 83.9529 18.1248 83.9588 18.0847L85.9996 5.15537C86.0191 5.06713 86.0678 4.98808 86.138 4.93108C86.2081 4.87407 86.2954 4.84246 86.3858 4.8414H88.7092C88.7496 4.83959 88.7899 4.84673 88.8272 4.86231C88.8646 4.87788 88.898 4.90151 88.9251 4.93151C88.9523 4.9615 88.9725 4.99712 88.9843 5.03582C88.996 5.07452 88.9991 5.11534 88.9933 5.15537L86.9525 18.0847C86.9336 18.1735 86.8851 18.2533 86.815 18.3109C86.7448 18.3686 86.6571 18.4006 86.5663 18.4018V18.3987Z" fill="#009EE3"/>
<path fill-rule="evenodd" clip-rule="evenodd" d="M3.96206 0H10.05C11.7643 0 13.7988 0.054945 15.1583 1.25589C16.0672 2.05808 16.5445 3.33438 16.4346 4.70958C16.061 9.35793 13.2807 11.9623 9.55076 11.9623H6.54919C6.03741 11.9623 5.69989 12.3014 5.55546 13.2182L4.71716 18.5557C4.66222 18.9011 4.51308 19.1052 4.2462 19.1303H0.489532C0.0735196 19.1303 -0.0740486 18.8163 0.0342717 18.1224L2.73443 1.01413C2.84275 0.326529 3.22109 0 3.96206 0Z" fill="#113984"/>
<path fill-rule="evenodd" clip-rule="evenodd" d="M5.64453 12.6766L6.70733 5.94664C6.79995 5.35637 7.12334 5.07379 7.76698 5.07379H13.8486C14.8549 5.07379 15.6697 5.23078 16.307 5.5212C15.6963 9.65935 13.0197 11.9576 9.5158 11.9576H6.51894C6.11706 11.9592 5.82193 12.1601 5.64453 12.6766Z" fill="#172C70"/>
</g>
<defs>
<clipPath id="clip0_1054_510">
<rect width="89" height="21.562" fill="white"/>
</clipPath>
</defs>
</svg>
