<svg width="64" height="21" viewBox="0 0 64 21" fill="none" xmlns="http://www.w3.org/2000/svg">
<g clip-path="url(#clip0_1054_499)">
<path d="M27.7333 20.6969H22.5488L25.7916 0.368347H30.9757L27.7333 20.6969Z" fill="#00579F"/>
<path d="M46.5265 0.865467C45.5039 0.454148 43.882 0 41.8765 0C36.7567 0 33.1514 2.768 33.1292 6.72541C33.0867 9.64517 35.7106 11.2669 37.673 12.2404C39.6788 13.2352 40.3606 13.8846 40.3606 14.7713C40.3402 16.1332 38.7398 16.7609 37.2471 16.7609C35.1773 16.7609 34.0682 16.4373 32.3828 15.6796L31.7001 15.3548L30.9746 19.9181C32.1906 20.4798 34.4308 20.9782 36.7567 21C42.1966 21 45.7381 18.2748 45.7801 14.0576C45.8008 11.7434 44.4153 9.97026 41.4283 8.5213C39.615 7.59116 38.5045 6.96398 38.5045 6.01228C38.5258 5.1471 39.4437 4.26094 41.4906 4.26094C43.1761 4.21754 44.4144 4.62828 45.3526 5.03931L45.8215 5.25518L46.5265 0.865467Z" fill="#00579F"/>
<path d="M53.4177 13.4952C53.8446 12.3274 55.4875 7.80745 55.4875 7.80745C55.466 7.85086 55.9136 6.61805 56.1696 5.86123L56.532 7.61286C56.532 7.61286 57.5137 12.4788 57.7269 13.4952C56.9167 13.4952 54.4417 13.4952 53.4177 13.4952ZM59.8172 0.368347H55.807C54.5704 0.368347 53.6309 0.735689 53.0973 2.05502L45.3965 20.6966H50.8364C50.8364 20.6966 51.732 18.1876 51.9245 17.6472C52.5212 17.6472 57.8131 17.6472 58.5809 17.6472C58.7297 18.3609 59.1995 20.6966 59.1995 20.6966H63.9998L59.8172 0.368347Z" fill="#00579F"/>
<path d="M18.2179 0.368347L13.1406 14.2305L12.5858 11.4191C11.6471 8.17509 8.70322 4.65056 5.41797 2.89806L10.0686 20.6754H15.551L23.7 0.368347H18.2179Z" fill="#00579F"/>
<path d="M8.42661 0.368347H0.0853345L0 0.779092C6.50671 2.46605 10.816 6.53239 12.5865 11.4199L10.7732 2.07715C10.4746 0.778804 9.55722 0.411175 8.42661 0.368347Z" fill="#FAA61A"/>
</g>
<defs>
<clipPath id="clip0_1054_499">
<rect width="64" height="21" fill="white"/>
</clipPath>
</defs>
</svg>
