<svg width="31" height="23" viewBox="0 0 31 23" fill="none" xmlns="http://www.w3.org/2000/svg">
<g clip-path="url(#clip0_1054_516)">
<path d="M20.0946 0C13.95 0 9.02321 4.98214 9.02321 11.0714C9.02321 17.2161 14.0054 22.1429 20.0946 22.1429C26.1839 22.1429 31.1661 17.1607 31.1661 11.0714C31.1661 4.98214 26.1839 0 20.0946 0ZM20.0946 15.1125C17.825 15.1125 15.9429 13.2304 15.9429 10.9607C15.9429 8.69107 17.825 6.80893 20.0946 6.80893C22.3643 6.80893 24.2464 8.69107 24.2464 10.9607C24.1911 13.3411 22.3643 15.1125 20.0946 15.1125ZM8.96786 3.15536V19.2643H5.0375L0 3.15536H8.96786Z" fill="#8B3FFD"/>
</g>
<defs>
<clipPath id="clip0_1054_516">
<rect width="31" height="22.1429" fill="white"/>
</clipPath>
</defs>
</svg>
