<svg width="40" height="38" viewBox="0 0 40 38" fill="none" xmlns="http://www.w3.org/2000/svg">
<path d="M17.3335 17.1667V11.6667L26.5002 19.0001L17.3335 26.3334V20.8334H0.833496V17.1667H17.3335ZM3.5065 24.5001H7.4005C8.68025 27.6517 11.0153 30.2608 14.0062 31.881C16.9971 33.5012 20.4581 34.0318 23.797 33.3821C27.1359 32.7324 30.1454 30.9428 32.3106 28.3193C34.4758 25.6959 35.6622 22.4016 35.6668 19.0001C35.6687 15.595 34.4858 12.2953 32.3208 9.66699C30.1559 7.0387 27.1439 5.2456 23.8014 4.59524C20.459 3.94487 16.9944 4.47777 14.0019 6.10254C11.0094 7.7273 8.67552 10.3427 7.4005 13.5001H3.5065C5.84216 6.06225 12.7905 0.666748 21.0002 0.666748C31.1257 0.666748 39.3335 8.87458 39.3335 19.0001C39.3335 29.1256 31.1257 37.3334 21.0002 37.3334C12.7905 37.3334 5.84216 31.9379 3.5065 24.5001Z" fill="#FF0000"/>
</svg>
