<svg width="44" height="44" viewBox="0 0 44 44" fill="none" xmlns="http://www.w3.org/2000/svg">
<path d="M25.8888 19.2133C25.545 18.8696 25.0788 18.6766 24.5927 18.6766C24.1065 18.6766 23.6403 18.8696 23.2965 19.2133L22.0003 20.5077C21.6621 20.8579 21.2575 21.1372 20.8102 21.3294C20.3628 21.5215 19.8817 21.6227 19.3948 21.6269C18.9079 21.6311 18.4251 21.5384 17.9745 21.354C17.5239 21.1696 17.1145 20.8974 16.7702 20.5531C16.4259 20.2088 16.1537 19.7995 15.9693 19.3488C15.785 18.8982 15.6922 18.4154 15.6964 17.9285C15.7006 17.4417 15.8018 16.9605 15.994 16.5132C16.1861 16.0658 16.4655 15.6612 16.8157 15.323L27.1373 4.99767C29.581 4.44185 32.1378 4.6706 34.444 5.65139C36.7502 6.63218 38.6885 8.31508 39.9833 10.4608C41.2781 12.6065 41.8634 15.1058 41.6561 17.6034C41.4488 20.1009 40.4594 22.4695 38.8285 24.3723L34.9638 28.2865L25.8888 19.2115V19.2133ZM5.7955 8.19133C7.69256 6.29452 10.1739 5.09296 12.8384 4.7809C15.5028 4.46885 18.1947 5.06454 20.4787 6.47167L14.2215 12.7307C12.8663 14.0832 12.0938 15.912 12.0691 17.8265C12.0443 19.741 12.7693 21.5892 14.0891 22.9763C15.4089 24.3634 17.2188 25.1793 19.1322 25.2497C21.0455 25.32 22.9105 24.6393 24.3287 23.353L24.5927 23.1018L32.3715 30.8788L24.5927 38.6577C23.9051 39.3451 22.9726 39.7312 22.0003 39.7312C21.0281 39.7312 20.0956 39.3451 19.408 38.6577L5.79367 25.0433C3.55908 22.8086 2.30371 19.7777 2.30371 16.6173C2.30371 13.457 3.55908 10.4261 5.79367 8.19133H5.7955Z" fill="#009D3F"/>
</svg>
